<?xml version="1.0" encoding="UTF-8"?>
<svg width="600px" height="325px" viewBox="0 0 600 325" version="1.1" xmlns="http://www.w3.org/2000/svg" xmlns:xlink="http://www.w3.org/1999/xlink">
    <title>s</title>
    <g id="cruorin1" stroke="none" stroke-width="1" fill="none" fill-rule="evenodd">
        <rect id="c-rect" fill="#FFE988" x="5" y="140" width="590" height="107" rx="15"></rect>
        <g id="timeline" transform="translate(10.000000, 10.000000)">
            <path id="l" d="M568.112893,8 C568.242541,8 568.370408,8.03018532 568.486368,8.08816547 L568.486368,8.08816547 L580.815954,14.2529586 C581.228483,14.4592232 581.395694,14.9608544 581.189429,15.3733835 C581.108621,15.5350012 580.977572,15.6660496 580.815954,15.7468584 L580.815954,15.7468584 L568.486368,21.9116516 C568.073839,22.1179161 567.572208,21.9507057 567.365943,21.5381766 C567.307963,21.4222163 567.277778,21.2943493 567.277778,21.1647017 L567.277778,21.1647017 L567.277778,8.83511536 C567.277778,8.37389388 567.651672,8 568.112893,8 Z M2.5,14 C3.05228475,14 3.5,14.4477153 3.5,15 C3.5,15.5128358 3.11395981,15.9355072 2.61662113,15.9932723 L2.5,16 L0.5,16 C-0.0522847498,16 -0.5,15.5522847 -0.5,15 C-0.5,14.4871642 -0.11395981,14.0644928 0.383378875,14.0067277 L0.5,14 L2.5,14 Z M10.5,14 C11.0522847,14 11.5,14.4477153 11.5,15 C11.5,15.5128358 11.1139598,15.9355072 10.6166211,15.9932723 L10.5,16 L8.5,16 C7.94771525,16 7.5,15.5522847 7.5,15 C7.5,14.4871642 7.88604019,14.0644928 8.38337887,14.0067277 L8.5,14 L10.5,14 Z M18.5,14 C19.0522847,14 19.5,14.4477153 19.5,15 C19.5,15.5128358 19.1139598,15.9355072 18.6166211,15.9932723 L18.5,16 L16.5,16 C15.9477153,16 15.5,15.5522847 15.5,15 C15.5,14.4871642 15.8860402,14.0644928 16.3833789,14.0067277 L16.5,14 L18.5,14 Z M26.5,14 C27.0522847,14 27.5,14.4477153 27.5,15 C27.5,15.5128358 27.1139598,15.9355072 26.6166211,15.9932723 L26.5,16 L24.5,16 C23.9477153,16 23.5,15.5522847 23.5,15 C23.5,14.4871642 23.8860402,14.0644928 24.3833789,14.0067277 L24.5,14 L26.5,14 Z M34.5,14 C35.0522847,14 35.5,14.4477153 35.5,15 C35.5,15.5128358 35.1139598,15.9355072 34.6166211,15.9932723 L34.5,16 L32.5,16 C31.9477153,16 31.5,15.5522847 31.5,15 C31.5,14.4871642 31.8860402,14.0644928 32.3833789,14.0067277 L32.5,14 L34.5,14 Z M42.5,14 C43.0522847,14 43.5,14.4477153 43.5,15 C43.5,15.5128358 43.1139598,15.9355072 42.6166211,15.9932723 L42.5,16 L40.5,16 C39.9477153,16 39.5,15.5522847 39.5,15 C39.5,14.4871642 39.8860402,14.0644928 40.3833789,14.0067277 L40.5,14 L42.5,14 Z M50.5,14 C51.0522847,14 51.5,14.4477153 51.5,15 C51.5,15.5128358 51.1139598,15.9355072 50.6166211,15.9932723 L50.5,16 L48.5,16 C47.9477153,16 47.5,15.5522847 47.5,15 C47.5,14.4871642 47.8860402,14.0644928 48.3833789,14.0067277 L48.5,14 L50.5,14 Z M58.5,14 C59.0522847,14 59.5,14.4477153 59.5,15 C59.5,15.5128358 59.1139598,15.9355072 58.6166211,15.9932723 L58.5,16 L56.5,16 C55.9477153,16 55.5,15.5522847 55.5,15 C55.5,14.4871642 55.8860402,14.0644928 56.3833789,14.0067277 L56.5,14 L58.5,14 Z M66.5,14 C67.0522847,14 67.5,14.4477153 67.5,15 C67.5,15.5128358 67.1139598,15.9355072 66.6166211,15.9932723 L66.5,16 L64.5,16 C63.9477153,16 63.5,15.5522847 63.5,15 C63.5,14.4871642 63.8860402,14.0644928 64.3833789,14.0067277 L64.5,14 L66.5,14 Z M74.5,14 C75.0522847,14 75.5,14.4477153 75.5,15 C75.5,15.5128358 75.1139598,15.9355072 74.6166211,15.9932723 L74.5,16 L72.5,16 C71.9477153,16 71.5,15.5522847 71.5,15 C71.5,14.4871642 71.8860402,14.0644928 72.3833789,14.0067277 L72.5,14 L74.5,14 Z M82.5,14 C83.0522847,14 83.5,14.4477153 83.5,15 C83.5,15.5128358 83.1139598,15.9355072 82.6166211,15.9932723 L82.5,16 L80.5,16 C79.9477153,16 79.5,15.5522847 79.5,15 C79.5,14.4871642 79.8860402,14.0644928 80.3833789,14.0067277 L80.5,14 L82.5,14 Z M90.5,14 C91.0522847,14 91.5,14.4477153 91.5,15 C91.5,15.5128358 91.1139598,15.9355072 90.6166211,15.9932723 L90.5,16 L88.5,16 C87.9477153,16 87.5,15.5522847 87.5,15 C87.5,14.4871642 87.8860402,14.0644928 88.3833789,14.0067277 L88.5,14 L90.5,14 Z M98.5,14 C99.0522847,14 99.5,14.4477153 99.5,15 C99.5,15.5128358 99.1139598,15.9355072 98.6166211,15.9932723 L98.5,16 L96.5,16 C95.9477153,16 95.5,15.5522847 95.5,15 C95.5,14.4871642 95.8860402,14.0644928 96.3833789,14.0067277 L96.5,14 L98.5,14 Z M106.5,14 C107.052285,14 107.5,14.4477153 107.5,15 C107.5,15.5128358 107.11396,15.9355072 106.616621,15.9932723 L106.5,16 L104.5,16 C103.947715,16 103.5,15.5522847 103.5,15 C103.5,14.4871642 103.88604,14.0644928 104.383379,14.0067277 L104.5,14 L106.5,14 Z M114.5,14 C115.052285,14 115.5,14.4477153 115.5,15 C115.5,15.5128358 115.11396,15.9355072 114.616621,15.9932723 L114.5,16 L112.5,16 C111.947715,16 111.5,15.5522847 111.5,15 C111.5,14.4871642 111.88604,14.0644928 112.383379,14.0067277 L112.5,14 L114.5,14 Z M122.5,14 C123.052285,14 123.5,14.4477153 123.5,15 C123.5,15.5128358 123.11396,15.9355072 122.616621,15.9932723 L122.5,16 L120.5,16 C119.947715,16 119.5,15.5522847 119.5,15 C119.5,14.4871642 119.88604,14.0644928 120.383379,14.0067277 L120.5,14 L122.5,14 Z M130.5,14 C131.052285,14 131.5,14.4477153 131.5,15 C131.5,15.5128358 131.11396,15.9355072 130.616621,15.9932723 L130.5,16 L128.5,16 C127.947715,16 127.5,15.5522847 127.5,15 C127.5,14.4871642 127.88604,14.0644928 128.383379,14.0067277 L128.5,14 L130.5,14 Z M138.5,14 C139.052285,14 139.5,14.4477153 139.5,15 C139.5,15.5128358 139.11396,15.9355072 138.616621,15.9932723 L138.5,16 L136.5,16 C135.947715,16 135.5,15.5522847 135.5,15 C135.5,14.4871642 135.88604,14.0644928 136.383379,14.0067277 L136.5,14 L138.5,14 Z M146.5,14 C147.052285,14 147.5,14.4477153 147.5,15 C147.5,15.5128358 147.11396,15.9355072 146.616621,15.9932723 L146.5,16 L144.5,16 C143.947715,16 143.5,15.5522847 143.5,15 C143.5,14.4871642 143.88604,14.0644928 144.383379,14.0067277 L144.5,14 L146.5,14 Z M154.5,14 C155.052285,14 155.5,14.4477153 155.5,15 C155.5,15.5128358 155.11396,15.9355072 154.616621,15.9932723 L154.5,16 L152.5,16 C151.947715,16 151.5,15.5522847 151.5,15 C151.5,14.4871642 151.88604,14.0644928 152.383379,14.0067277 L152.5,14 L154.5,14 Z M162.5,14 C163.052285,14 163.5,14.4477153 163.5,15 C163.5,15.5128358 163.11396,15.9355072 162.616621,15.9932723 L162.5,16 L160.5,16 C159.947715,16 159.5,15.5522847 159.5,15 C159.5,14.4871642 159.88604,14.0644928 160.383379,14.0067277 L160.5,14 L162.5,14 Z M170.5,14 C171.052285,14 171.5,14.4477153 171.5,15 C171.5,15.5128358 171.11396,15.9355072 170.616621,15.9932723 L170.5,16 L168.5,16 C167.947715,16 167.5,15.5522847 167.5,15 C167.5,14.4871642 167.88604,14.0644928 168.383379,14.0067277 L168.5,14 L170.5,14 Z M178.5,14 C179.052285,14 179.5,14.4477153 179.5,15 C179.5,15.5128358 179.11396,15.9355072 178.616621,15.9932723 L178.5,16 L176.5,16 C175.947715,16 175.5,15.5522847 175.5,15 C175.5,14.4871642 175.88604,14.0644928 176.383379,14.0067277 L176.5,14 L178.5,14 Z M186.5,14 C187.052285,14 187.5,14.4477153 187.5,15 C187.5,15.5128358 187.11396,15.9355072 186.616621,15.9932723 L186.5,16 L184.5,16 C183.947715,16 183.5,15.5522847 183.5,15 C183.5,14.4871642 183.88604,14.0644928 184.383379,14.0067277 L184.5,14 L186.5,14 Z M194.5,14 C195.052285,14 195.5,14.4477153 195.5,15 C195.5,15.5128358 195.11396,15.9355072 194.616621,15.9932723 L194.5,16 L192.5,16 C191.947715,16 191.5,15.5522847 191.5,15 C191.5,14.4871642 191.88604,14.0644928 192.383379,14.0067277 L192.5,14 L194.5,14 Z M202.5,14 C203.052285,14 203.5,14.4477153 203.5,15 C203.5,15.5128358 203.11396,15.9355072 202.616621,15.9932723 L202.5,16 L200.5,16 C199.947715,16 199.5,15.5522847 199.5,15 C199.5,14.4871642 199.88604,14.0644928 200.383379,14.0067277 L200.5,14 L202.5,14 Z M210.5,14 C211.052285,14 211.5,14.4477153 211.5,15 C211.5,15.5128358 211.11396,15.9355072 210.616621,15.9932723 L210.5,16 L208.5,16 C207.947715,16 207.5,15.5522847 207.5,15 C207.5,14.4871642 207.88604,14.0644928 208.383379,14.0067277 L208.5,14 L210.5,14 Z M218.5,14 C219.052285,14 219.5,14.4477153 219.5,15 C219.5,15.5128358 219.11396,15.9355072 218.616621,15.9932723 L218.5,16 L216.5,16 C215.947715,16 215.5,15.5522847 215.5,15 C215.5,14.4871642 215.88604,14.0644928 216.383379,14.0067277 L216.5,14 L218.5,14 Z M226.5,14 C227.052285,14 227.5,14.4477153 227.5,15 C227.5,15.5128358 227.11396,15.9355072 226.616621,15.9932723 L226.5,16 L224.5,16 C223.947715,16 223.5,15.5522847 223.5,15 C223.5,14.4871642 223.88604,14.0644928 224.383379,14.0067277 L224.5,14 L226.5,14 Z M234.5,14 C235.052285,14 235.5,14.4477153 235.5,15 C235.5,15.5128358 235.11396,15.9355072 234.616621,15.9932723 L234.5,16 L232.5,16 C231.947715,16 231.5,15.5522847 231.5,15 C231.5,14.4871642 231.88604,14.0644928 232.383379,14.0067277 L232.5,14 L234.5,14 Z M242.5,14 C243.052285,14 243.5,14.4477153 243.5,15 C243.5,15.5128358 243.11396,15.9355072 242.616621,15.9932723 L242.5,16 L240.5,16 C239.947715,16 239.5,15.5522847 239.5,15 C239.5,14.4871642 239.88604,14.0644928 240.383379,14.0067277 L240.5,14 L242.5,14 Z M250.5,14 C251.052285,14 251.5,14.4477153 251.5,15 C251.5,15.5128358 251.11396,15.9355072 250.616621,15.9932723 L250.5,16 L248.5,16 C247.947715,16 247.5,15.5522847 247.5,15 C247.5,14.4871642 247.88604,14.0644928 248.383379,14.0067277 L248.5,14 L250.5,14 Z M258.5,14 C259.052285,14 259.5,14.4477153 259.5,15 C259.5,15.5128358 259.11396,15.9355072 258.616621,15.9932723 L258.5,16 L256.5,16 C255.947715,16 255.5,15.5522847 255.5,15 C255.5,14.4871642 255.88604,14.0644928 256.383379,14.0067277 L256.5,14 L258.5,14 Z M266.5,14 C267.052285,14 267.5,14.4477153 267.5,15 C267.5,15.5128358 267.11396,15.9355072 266.616621,15.9932723 L266.5,16 L264.5,16 C263.947715,16 263.5,15.5522847 263.5,15 C263.5,14.4871642 263.88604,14.0644928 264.383379,14.0067277 L264.5,14 L266.5,14 Z M274.5,14 C275.052285,14 275.5,14.4477153 275.5,15 C275.5,15.5128358 275.11396,15.9355072 274.616621,15.9932723 L274.5,16 L272.5,16 C271.947715,16 271.5,15.5522847 271.5,15 C271.5,14.4871642 271.88604,14.0644928 272.383379,14.0067277 L272.5,14 L274.5,14 Z M282.5,14 C283.052285,14 283.5,14.4477153 283.5,15 C283.5,15.5128358 283.11396,15.9355072 282.616621,15.9932723 L282.5,16 L280.5,16 C279.947715,16 279.5,15.5522847 279.5,15 C279.5,14.4871642 279.88604,14.0644928 280.383379,14.0067277 L280.5,14 L282.5,14 Z M290.5,14 C291.052285,14 291.5,14.4477153 291.5,15 C291.5,15.5128358 291.11396,15.9355072 290.616621,15.9932723 L290.5,16 L288.5,16 C287.947715,16 287.5,15.5522847 287.5,15 C287.5,14.4871642 287.88604,14.0644928 288.383379,14.0067277 L288.5,14 L290.5,14 Z M298.5,14 C299.052285,14 299.5,14.4477153 299.5,15 C299.5,15.5128358 299.11396,15.9355072 298.616621,15.9932723 L298.5,16 L296.5,16 C295.947715,16 295.5,15.5522847 295.5,15 C295.5,14.4871642 295.88604,14.0644928 296.383379,14.0067277 L296.5,14 L298.5,14 Z M306.5,14 C307.052285,14 307.5,14.4477153 307.5,15 C307.5,15.5128358 307.11396,15.9355072 306.616621,15.9932723 L306.5,16 L304.5,16 C303.947715,16 303.5,15.5522847 303.5,15 C303.5,14.4871642 303.88604,14.0644928 304.383379,14.0067277 L304.5,14 L306.5,14 Z M314.5,14 C315.052285,14 315.5,14.4477153 315.5,15 C315.5,15.5128358 315.11396,15.9355072 314.616621,15.9932723 L314.5,16 L312.5,16 C311.947715,16 311.5,15.5522847 311.5,15 C311.5,14.4871642 311.88604,14.0644928 312.383379,14.0067277 L312.5,14 L314.5,14 Z M322.5,14 C323.052285,14 323.5,14.4477153 323.5,15 C323.5,15.5128358 323.11396,15.9355072 322.616621,15.9932723 L322.5,16 L320.5,16 C319.947715,16 319.5,15.5522847 319.5,15 C319.5,14.4871642 319.88604,14.0644928 320.383379,14.0067277 L320.5,14 L322.5,14 Z M330.5,14 C331.052285,14 331.5,14.4477153 331.5,15 C331.5,15.5128358 331.11396,15.9355072 330.616621,15.9932723 L330.5,16 L328.5,16 C327.947715,16 327.5,15.5522847 327.5,15 C327.5,14.4871642 327.88604,14.0644928 328.383379,14.0067277 L328.5,14 L330.5,14 Z M338.5,14 C339.052285,14 339.5,14.4477153 339.5,15 C339.5,15.5128358 339.11396,15.9355072 338.616621,15.9932723 L338.5,16 L336.5,16 C335.947715,16 335.5,15.5522847 335.5,15 C335.5,14.4871642 335.88604,14.0644928 336.383379,14.0067277 L336.5,14 L338.5,14 Z M346.5,14 C347.052285,14 347.5,14.4477153 347.5,15 C347.5,15.5128358 347.11396,15.9355072 346.616621,15.9932723 L346.5,16 L344.5,16 C343.947715,16 343.5,15.5522847 343.5,15 C343.5,14.4871642 343.88604,14.0644928 344.383379,14.0067277 L344.5,14 L346.5,14 Z M354.5,14 C355.052285,14 355.5,14.4477153 355.5,15 C355.5,15.5128358 355.11396,15.9355072 354.616621,15.9932723 L354.5,16 L352.5,16 C351.947715,16 351.5,15.5522847 351.5,15 C351.5,14.4871642 351.88604,14.0644928 352.383379,14.0067277 L352.5,14 L354.5,14 Z M362.5,14 C363.052285,14 363.5,14.4477153 363.5,15 C363.5,15.5128358 363.11396,15.9355072 362.616621,15.9932723 L362.5,16 L360.5,16 C359.947715,16 359.5,15.5522847 359.5,15 C359.5,14.4871642 359.88604,14.0644928 360.383379,14.0067277 L360.5,14 L362.5,14 Z M370.5,14 C371.052285,14 371.5,14.4477153 371.5,15 C371.5,15.5128358 371.11396,15.9355072 370.616621,15.9932723 L370.5,16 L368.5,16 C367.947715,16 367.5,15.5522847 367.5,15 C367.5,14.4871642 367.88604,14.0644928 368.383379,14.0067277 L368.5,14 L370.5,14 Z M378.5,14 C379.052285,14 379.5,14.4477153 379.5,15 C379.5,15.5128358 379.11396,15.9355072 378.616621,15.9932723 L378.5,16 L376.5,16 C375.947715,16 375.5,15.5522847 375.5,15 C375.5,14.4871642 375.88604,14.0644928 376.383379,14.0067277 L376.5,14 L378.5,14 Z M386.5,14 C387.052285,14 387.5,14.4477153 387.5,15 C387.5,15.5128358 387.11396,15.9355072 386.616621,15.9932723 L386.5,16 L384.5,16 C383.947715,16 383.5,15.5522847 383.5,15 C383.5,14.4871642 383.88604,14.0644928 384.383379,14.0067277 L384.5,14 L386.5,14 Z M394.5,14 C395.052285,14 395.5,14.4477153 395.5,15 C395.5,15.5128358 395.11396,15.9355072 394.616621,15.9932723 L394.5,16 L392.5,16 C391.947715,16 391.5,15.5522847 391.5,15 C391.5,14.4871642 391.88604,14.0644928 392.383379,14.0067277 L392.5,14 L394.5,14 Z M402.5,14 C403.052285,14 403.5,14.4477153 403.5,15 C403.5,15.5128358 403.11396,15.9355072 402.616621,15.9932723 L402.5,16 L400.5,16 C399.947715,16 399.5,15.5522847 399.5,15 C399.5,14.4871642 399.88604,14.0644928 400.383379,14.0067277 L400.5,14 L402.5,14 Z M410.5,14 C411.052285,14 411.5,14.4477153 411.5,15 C411.5,15.5128358 411.11396,15.9355072 410.616621,15.9932723 L410.5,16 L408.5,16 C407.947715,16 407.5,15.5522847 407.5,15 C407.5,14.4871642 407.88604,14.0644928 408.383379,14.0067277 L408.5,14 L410.5,14 Z M418.5,14 C419.052285,14 419.5,14.4477153 419.5,15 C419.5,15.5128358 419.11396,15.9355072 418.616621,15.9932723 L418.5,16 L416.5,16 C415.947715,16 415.5,15.5522847 415.5,15 C415.5,14.4871642 415.88604,14.0644928 416.383379,14.0067277 L416.5,14 L418.5,14 Z M426.5,14 C427.052285,14 427.5,14.4477153 427.5,15 C427.5,15.5128358 427.11396,15.9355072 426.616621,15.9932723 L426.5,16 L424.5,16 C423.947715,16 423.5,15.5522847 423.5,15 C423.5,14.4871642 423.88604,14.0644928 424.383379,14.0067277 L424.5,14 L426.5,14 Z M434.5,14 C435.052285,14 435.5,14.4477153 435.5,15 C435.5,15.5128358 435.11396,15.9355072 434.616621,15.9932723 L434.5,16 L432.5,16 C431.947715,16 431.5,15.5522847 431.5,15 C431.5,14.4871642 431.88604,14.0644928 432.383379,14.0067277 L432.5,14 L434.5,14 Z M442.5,14 C443.052285,14 443.5,14.4477153 443.5,15 C443.5,15.5128358 443.11396,15.9355072 442.616621,15.9932723 L442.5,16 L440.5,16 C439.947715,16 439.5,15.5522847 439.5,15 C439.5,14.4871642 439.88604,14.0644928 440.383379,14.0067277 L440.5,14 L442.5,14 Z M450.5,14 C451.052285,14 451.5,14.4477153 451.5,15 C451.5,15.5128358 451.11396,15.9355072 450.616621,15.9932723 L450.5,16 L448.5,16 C447.947715,16 447.5,15.5522847 447.5,15 C447.5,14.4871642 447.88604,14.0644928 448.383379,14.0067277 L448.5,14 L450.5,14 Z M458.5,14 C459.052285,14 459.5,14.4477153 459.5,15 C459.5,15.5128358 459.11396,15.9355072 458.616621,15.9932723 L458.5,16 L456.5,16 C455.947715,16 455.5,15.5522847 455.5,15 C455.5,14.4871642 455.88604,14.0644928 456.383379,14.0067277 L456.5,14 L458.5,14 Z M466.5,14 C467.052285,14 467.5,14.4477153 467.5,15 C467.5,15.5128358 467.11396,15.9355072 466.616621,15.9932723 L466.5,16 L464.5,16 C463.947715,16 463.5,15.5522847 463.5,15 C463.5,14.4871642 463.88604,14.0644928 464.383379,14.0067277 L464.5,14 L466.5,14 Z M474.5,14 C475.052285,14 475.5,14.4477153 475.5,15 C475.5,15.5128358 475.11396,15.9355072 474.616621,15.9932723 L474.5,16 L472.5,16 C471.947715,16 471.5,15.5522847 471.5,15 C471.5,14.4871642 471.88604,14.0644928 472.383379,14.0067277 L472.5,14 L474.5,14 Z M482.5,14 C483.052285,14 483.5,14.4477153 483.5,15 C483.5,15.5128358 483.11396,15.9355072 482.616621,15.9932723 L482.5,16 L480.5,16 C479.947715,16 479.5,15.5522847 479.5,15 C479.5,14.4871642 479.88604,14.0644928 480.383379,14.0067277 L480.5,14 L482.5,14 Z M490.5,14 C491.052285,14 491.5,14.4477153 491.5,15 C491.5,15.5128358 491.11396,15.9355072 490.616621,15.9932723 L490.5,16 L488.5,16 C487.947715,16 487.5,15.5522847 487.5,15 C487.5,14.4871642 487.88604,14.0644928 488.383379,14.0067277 L488.5,14 L490.5,14 Z M498.5,14 C499.052285,14 499.5,14.4477153 499.5,15 C499.5,15.5128358 499.11396,15.9355072 498.616621,15.9932723 L498.5,16 L496.5,16 C495.947715,16 495.5,15.5522847 495.5,15 C495.5,14.4871642 495.88604,14.0644928 496.383379,14.0067277 L496.5,14 L498.5,14 Z M506.5,14 C507.052285,14 507.5,14.4477153 507.5,15 C507.5,15.5128358 507.11396,15.9355072 506.616621,15.9932723 L506.5,16 L504.5,16 C503.947715,16 503.5,15.5522847 503.5,15 C503.5,14.4871642 503.88604,14.0644928 504.383379,14.0067277 L504.5,14 L506.5,14 Z M514.5,14 C515.052285,14 515.5,14.4477153 515.5,15 C515.5,15.5128358 515.11396,15.9355072 514.616621,15.9932723 L514.5,16 L512.5,16 C511.947715,16 511.5,15.5522847 511.5,15 C511.5,14.4871642 511.88604,14.0644928 512.383379,14.0067277 L512.5,14 L514.5,14 Z M522.5,14 C523.052285,14 523.5,14.4477153 523.5,15 C523.5,15.5128358 523.11396,15.9355072 522.616621,15.9932723 L522.5,16 L520.5,16 C519.947715,16 519.5,15.5522847 519.5,15 C519.5,14.4871642 519.88604,14.0644928 520.383379,14.0067277 L520.5,14 L522.5,14 Z M530.5,14 C531.052285,14 531.5,14.4477153 531.5,15 C531.5,15.5128358 531.11396,15.9355072 530.616621,15.9932723 L530.5,16 L528.5,16 C527.947715,16 527.5,15.5522847 527.5,15 C527.5,14.4871642 527.88604,14.0644928 528.383379,14.0067277 L528.5,14 L530.5,14 Z M538.5,14 C539.052285,14 539.5,14.4477153 539.5,15 C539.5,15.5128358 539.11396,15.9355072 538.616621,15.9932723 L538.5,16 L536.5,16 C535.947715,16 535.5,15.5522847 535.5,15 C535.5,14.4871642 535.88604,14.0644928 536.383379,14.0067277 L536.5,14 L538.5,14 Z M546.5,14 C547.052285,14 547.5,14.4477153 547.5,15 C547.5,15.5128358 547.11396,15.9355072 546.616621,15.9932723 L546.5,16 L544.5,16 C543.947715,16 543.5,15.5522847 543.5,15 C543.5,14.4871642 543.88604,14.0644928 544.383379,14.0067277 L544.5,14 L546.5,14 Z M554.5,14 C555.052285,14 555.5,14.4477153 555.5,15 C555.5,15.5128358 555.11396,15.9355072 554.616621,15.9932723 L554.5,16 L552.5,16 C551.947715,16 551.5,15.5522847 551.5,15 C551.5,14.4871642 551.88604,14.0644928 552.383379,14.0067277 L552.5,14 L554.5,14 Z M562.5,14 C563.052285,14 563.5,14.4477153 563.5,15 C563.5,15.5128358 563.11396,15.9355072 562.616621,15.9932723 L562.5,16 L560.5,16 C559.947715,16 559.5,15.5522847 559.5,15 C559.5,14.4871642 559.88604,14.0644928 560.383379,14.0067277 L560.5,14 L562.5,14 Z" fill="#979797" fill-rule="nonzero"></path>
            <rect id="r" fill="#FFFFFF" x="255" y="0" width="70" height="30"></rect>
            <text id="t" font-family="Helvetica-Oblique, Helvetica" font-size="16" font-style="italic" font-weight="normal" fill="#6D7278">
                <tspan x="263.433594" y="20">timeline</tspan>
            </text>
        </g>
        <g id="rq-i1" transform="translate(10.000000, 45.000000)">
            <rect id="r" fill="#0091FF" x="0" y="0" width="120" height="26"></rect>
            <text id="t" font-family="Helvetica-Oblique, Helvetica" font-size="14" font-style="italic" font-weight="normal" fill="#FFFFFF">
                <tspan x="31" y="18">request 1</tspan>
            </text>
        </g>
        <g id="rq-i2" transform="translate(130.000000, 75.000000)">
            <rect id="r" fill="#0091FF" x="0" y="0" width="120" height="26"></rect>
            <text id="t" font-family="Helvetica-Oblique, Helvetica" font-size="14" font-style="italic" font-weight="normal" fill="#FFFFFF">
                <tspan x="31" y="18">request 2</tspan>
            </text>
        </g>
        <g id="rq-i3" transform="translate(250.000000, 105.000000)">
            <rect id="r" fill="#0091FF" x="0" y="0" width="120" height="26"></rect>
            <text id="t" font-family="Helvetica-Oblique, Helvetica" font-size="14" font-style="italic" font-weight="normal" fill="#FFFFFF">
                <tspan x="31" y="18">request n</tspan>
            </text>
        </g>
        <g id="wt-i1" transform="translate(130.000000, 45.000000)">
            <rect id="r" fill="#AAAAAA" x="0" y="0" width="340" height="26"></rect>
            <text id="t" font-family="Helvetica-Oblique, Helvetica" font-size="14" font-style="italic" font-weight="normal" fill="#FFFFFF">
                <tspan x="158" y="18">wait</tspan>
            </text>
        </g>
        <g id="wt-i2" transform="translate(250.000000, 75.000000)">
            <rect id="r" fill="#AAAAAA" x="0" y="0" width="220" height="26"></rect>
            <text id="t" font-family="Helvetica-Oblique, Helvetica" font-size="14" font-style="italic" font-weight="normal" fill="#FFFFFF">
                <tspan x="98" y="18">wait</tspan>
            </text>
        </g>
        <g id="wt-i3" transform="translate(370.000000, 105.000000)">
            <rect id="r" fill="#AAAAAA" x="0" y="0" width="100" height="26"></rect>
            <text id="t" font-family="Helvetica-Oblique, Helvetica" font-size="14" font-style="italic" font-weight="normal" fill="#FFFFFF">
                <tspan x="38" y="18">wait</tspan>
            </text>
        </g>
        <g id="rs-i1" transform="translate(470.000000, 45.000000)">
            <rect id="r" fill="#43A047" x="0" y="0" width="120" height="26"></rect>
            <text id="t" font-family="Helvetica-Oblique, Helvetica" font-size="14" font-style="italic" font-weight="normal" fill="#FFFFFF">
                <tspan x="31" y="18">response</tspan>
            </text>
        </g>
        <g id="rs-i2" transform="translate(470.000000, 75.000000)">
            <rect id="r" fill="#43A047" x="0" y="0" width="120" height="26"></rect>
            <text id="t" font-family="Helvetica-Oblique, Helvetica" font-size="14" font-style="italic" font-weight="normal" fill="#FFFFFF">
                <tspan x="31" y="18">response</tspan>
            </text>
        </g>
        <g id="rs-i3" transform="translate(470.000000, 105.000000)">
            <rect id="r" fill="#43A047" x="0" y="0" width="120" height="26"></rect>
            <text id="t" font-family="Helvetica-Oblique, Helvetica" font-size="14" font-style="italic" font-weight="normal" fill="#FFFFFF">
                <tspan x="31" y="18">response</tspan>
            </text>
        </g>
        <g id="rq-o" transform="translate(10.000000, 287.000000)">
            <rect id="r" fill="#0091FF" x="0" y="0" width="120" height="26"></rect>
            <text id="t" font-family="Helvetica-Oblique, Helvetica" font-size="14" font-style="italic" font-weight="normal" fill="#FFFFFF">
                <tspan x="37" y="19">request</tspan>
            </text>
        </g>
        <g id="wt-o" transform="translate(130.000000, 287.000000)">
            <rect id="r" fill="#AAAAAA" x="0" y="0" width="340" height="26"></rect>
            <text id="t" font-family="Helvetica-Oblique, Helvetica" font-size="14" font-style="italic" font-weight="normal" fill="#FFFFFF">
                <tspan x="158" y="19">wait</tspan>
            </text>
        </g>
        <g id="rs-o" transform="translate(470.000000, 287.000000)">
            <rect id="r" fill="#43A047" x="0" y="0" width="120" height="26"></rect>
            <text id="t" font-family="Helvetica-Oblique, Helvetica" font-size="14" font-style="italic" font-weight="normal" fill="#FFFFFF">
                <tspan x="31" y="19">response</tspan>
            </text>
        </g>
        <g id="c1" transform="translate(10.000000, 145.000000)">
            <rect id="r" fill="#FA6400" x="0" y="0" width="170" height="30" rx="15"></rect>
            <text id="t" font-family="Helvetica-BoldOblique, Helvetica" font-size="12" font-style="italic" font-weight="bold" fill="#FFFFFF">
                <tspan x="12.296875" y="19">create request proxy task</tspan>
            </text>
        </g>
        <g id="c2" transform="translate(130.000000, 179.000000)">
            <rect id="r" fill="#FA6400" x="0" y="0" width="240" height="30" rx="15"></rect>
            <text id="t" font-family="Helvetica-BoldOblique, Helvetica" font-size="12" font-style="italic" font-weight="bold" fill="#FFFFFF">
                <tspan x="19.4755859" y="19">bind more requests with proxy task</tspan>
            </text>
        </g>
        <g id="c3" transform="translate(360.000000, 213.000000)">
            <rect id="r" fill="#FA6400" x="0" y="0" width="230" height="30" rx="15"></rect>
            <text id="t" font-family="Helvetica-BoldOblique, Helvetica" font-size="12" font-style="italic" font-weight="bold" fill="#FFFFFF">
                <tspan x="29.1503906" y="19">respond all with one response</tspan>
            </text>
        </g>
        <g id="emit" transform="translate(53.000000, 179.000000)">
            <path id="l" d="M17.9951691,-0.999988331 C18.507999,-1.00246577 18.9325303,-0.618471951 18.9926973,-0.121418125 L18.9999883,-0.0048308615 L19.435,90.273 L24.600938,90.2481504 C25.0266759,90.2460937 25.3795444,90.5629768 25.4330652,90.9744992 L25.4400779,91.0792216 C25.4407042,91.2088677 25.411137,91.3368791 25.3537177,91.4531181 L25.3537177,91.4531181 L19.248559,103.812342 C19.0442897,104.225863 18.5434721,104.395494 18.1299514,104.191225 C17.9679452,104.111198 17.8362653,103.980784 17.7546766,103.819559 L17.7546766,103.819559 L11.5303929,91.5198975 C11.3221379,91.1083697 11.4869231,90.6059365 11.8984508,90.3976815 C12.0141297,90.3391419 12.1418495,90.3083392 12.2714955,90.3077129 L12.2714955,90.3077129 L17.436,90.282 L17.0000117,0.0048308615 C16.9973437,-0.547447444 17.4428908,-0.99732032 17.9951691,-0.999988331 Z" fill="#979797" fill-rule="nonzero"></path>
            <rect id="r" fill="#FA6400" x="0" y="36" width="37" height="16" rx="8"></rect>
            <text id="t" font-family="Helvetica-BoldOblique, Helvetica" font-size="12" font-style="italic" font-weight="bold" fill="#FFFFFF">
                <tspan x="6.16308594" y="48">emit</tspan>
            </text>
        </g>
        <path id="line" d="M70.5,73.5 C71.0128358,73.5 71.4355072,73.8860402 71.4932723,74.3833789 L71.5,74.5 L71.5,127.277 L76.6648846,127.277778 C77.0906275,127.277778 77.4419611,127.596362 77.4934933,128.008138 L77.5,128.112893 C77.5,128.242541 77.4698147,128.370408 77.4118345,128.486368 L77.4118345,128.486368 L71.2470414,140.815954 C71.0407768,141.228483 70.5391456,141.395694 70.1266165,141.189429 C69.9649988,141.108621 69.8339504,140.977572 69.7531416,140.815954 L69.7531416,140.815954 L63.5883484,128.486368 C63.3820839,128.073839 63.5492943,127.572208 63.9618234,127.365943 C64.0777837,127.307963 64.2056507,127.277778 64.3352983,127.277778 L64.3352983,127.277778 L69.5,127.277 L69.5,74.5 C69.5,73.9477153 69.9477153,73.5 70.5,73.5 Z" fill="#979797" fill-rule="nonzero"></path>
        <path id="line" d="M530,134 C530.512836,134 530.935507,134.38604 530.993272,134.883379 L531,135 L531,196.777 L536.164885,196.777778 C536.590628,196.777778 536.941961,197.096362 536.993493,197.508138 L537,197.612893 C537,197.742541 536.969815,197.870408 536.911835,197.986368 L536.911835,197.986368 L530.747041,210.315954 C530.540777,210.728483 530.039146,210.895694 529.626617,210.689429 C529.464999,210.608621 529.33395,210.477572 529.253142,210.315954 L529.253142,210.315954 L523.088348,197.986368 C522.882084,197.573839 523.049294,197.072208 523.461823,196.865943 C523.577784,196.807963 523.705651,196.777778 523.835298,196.777778 L523.835298,196.777778 L529,196.777 L529,135 C529,134.447715 529.447715,134 530,134 Z" fill="#979797" fill-rule="nonzero"></path>
        <path id="line" d="M530.5,245.5 C531.012836,245.5 531.435507,245.88604 531.493272,246.383379 L531.5,246.5 L531.5,269.277 L536.664885,269.277778 C537.090628,269.277778 537.441961,269.596362 537.493493,270.008138 L537.5,270.112893 C537.5,270.242541 537.469815,270.370408 537.411835,270.486368 L537.411835,270.486368 L531.247041,282.815954 C531.040777,283.228483 530.539146,283.395694 530.126617,283.189429 C529.964999,283.108621 529.83395,282.977572 529.753142,282.815954 L529.753142,282.815954 L523.588348,270.486368 C523.382084,270.073839 523.549294,269.572208 523.961823,269.365943 C524.077784,269.307963 524.205651,269.277778 524.335298,269.277778 L524.335298,269.277778 L529.5,269.277 L529.5,246.5 C529.5,245.947715 529.947715,245.5 530.5,245.5 Z" fill="#979797" fill-rule="nonzero"></path>
        <path id="line" d="M216,104 C216.512836,104 216.935507,104.38604 216.993272,104.883379 L217,105 L217,161.777 L222.164885,161.777778 C222.590628,161.777778 222.941961,162.096362 222.993493,162.508138 L223,162.612893 C223,162.742541 222.969815,162.870408 222.911835,162.986368 L222.911835,162.986368 L216.747041,175.315954 C216.540777,175.728483 216.039146,175.895694 215.626617,175.689429 C215.464999,175.608621 215.33395,175.477572 215.253142,175.315954 L215.253142,175.315954 L209.088348,162.986368 C208.882084,162.573839 209.049294,162.072208 209.461823,161.865943 C209.577784,161.807963 209.705651,161.777778 209.835298,161.777778 L209.835298,161.777778 L215,161.777 L215,105 C215,104.447715 215.447715,104 216,104 Z" fill="#979797" fill-rule="nonzero"></path>
        <path id="line" d="M309.987655,134.000076 C310.500452,133.993745 310.927857,134.374538 310.991757,134.871126 L310.999924,134.987655 L311.336,162.266 L316.50119,162.202681 C316.9269,162.197426 317.28214,162.511648 317.338752,162.922757 L317.346551,163.027424 C317.348151,163.157062 317.319547,163.285291 317.263003,163.401959 L317.263003,163.401959 L311.250885,175.806708 C311.049729,176.221752 310.5502,176.395142 310.135156,176.193986 C309.972553,176.115179 309.839897,175.985758 309.757099,175.82515 L309.757099,175.82515 L303.44057,163.572606 C303.229229,163.162655 303.390234,162.658997 303.800185,162.447656 C303.915421,162.388249 304.042905,162.356487 304.172543,162.354887 L304.172543,162.354887 L309.336,162.29 L309.000076,135.012345 C308.993258,134.460102 309.435413,134.006894 309.987655,134.000076 Z" fill="#979797" fill-rule="nonzero"></path>
    </g>
</svg>