<?xml version="1.0" encoding="UTF-8"?>
<svg width="600px" height="325px" viewBox="0 0 600 325" version="1.1" xmlns="http://www.w3.org/2000/svg" xmlns:xlink="http://www.w3.org/1999/xlink">
    <title>s</title>
    <g id="cruorin1" stroke="none" stroke-width="1" fill="none" fill-rule="evenodd">
        <rect id="c-rect" fill="#FFE082" x="5" y="140" width="590" height="107" rx="15"></rect>
        <g id="timeline" transform="translate(10.000000, 10.000000)">
            <path id="l" d="M568.112893,8 C568.242541,8 568.370408,8.03018532 568.486368,8.08816547 L568.486368,8.08816547 L580.815954,14.2529586 C581.228483,14.4592232 581.395694,14.9608544 581.189429,15.3733835 C581.108621,15.5350012 580.977572,15.6660496 580.815954,15.7468584 L580.815954,15.7468584 L568.486368,21.9116516 C568.073839,22.1179161 567.572208,21.9507057 567.365943,21.5381766 C567.307963,21.4222163 567.277778,21.2943493 567.277778,21.1647017 L567.277778,21.1647017 L567.277778,8.83511536 C567.277778,8.37389388 567.651672,8 568.112893,8 Z M3.5,14 C4.05228475,14 4.5,14.4477153 4.5,15 C4.5,15.5128358 4.11395981,15.9355072 3.61662113,15.9932723 L3.5,16 L0.5,16 C-0.0522847498,16 -0.5,15.5522847 -0.5,15 C-0.5,14.4871642 -0.11395981,14.0644928 0.383378875,14.0067277 L0.5,14 L3.5,14 Z M14.5,14 C15.0522847,14 15.5,14.4477153 15.5,15 C15.5,15.5128358 15.1139598,15.9355072 14.6166211,15.9932723 L14.5,16 L11.5,16 C10.9477153,16 10.5,15.5522847 10.5,15 C10.5,14.4871642 10.8860402,14.0644928 11.3833789,14.0067277 L11.5,14 L14.5,14 Z M25.5,14 C26.0522847,14 26.5,14.4477153 26.5,15 C26.5,15.5128358 26.1139598,15.9355072 25.6166211,15.9932723 L25.5,16 L22.5,16 C21.9477153,16 21.5,15.5522847 21.5,15 C21.5,14.4871642 21.8860402,14.0644928 22.3833789,14.0067277 L22.5,14 L25.5,14 Z M36.5,14 C37.0522847,14 37.5,14.4477153 37.5,15 C37.5,15.5128358 37.1139598,15.9355072 36.6166211,15.9932723 L36.5,16 L33.5,16 C32.9477153,16 32.5,15.5522847 32.5,15 C32.5,14.4871642 32.8860402,14.0644928 33.3833789,14.0067277 L33.5,14 L36.5,14 Z M47.5,14 C48.0522847,14 48.5,14.4477153 48.5,15 C48.5,15.5128358 48.1139598,15.9355072 47.6166211,15.9932723 L47.5,16 L44.5,16 C43.9477153,16 43.5,15.5522847 43.5,15 C43.5,14.4871642 43.8860402,14.0644928 44.3833789,14.0067277 L44.5,14 L47.5,14 Z M58.5,14 C59.0522847,14 59.5,14.4477153 59.5,15 C59.5,15.5128358 59.1139598,15.9355072 58.6166211,15.9932723 L58.5,16 L55.5,16 C54.9477153,16 54.5,15.5522847 54.5,15 C54.5,14.4871642 54.8860402,14.0644928 55.3833789,14.0067277 L55.5,14 L58.5,14 Z M69.5,14 C70.0522847,14 70.5,14.4477153 70.5,15 C70.5,15.5128358 70.1139598,15.9355072 69.6166211,15.9932723 L69.5,16 L66.5,16 C65.9477153,16 65.5,15.5522847 65.5,15 C65.5,14.4871642 65.8860402,14.0644928 66.3833789,14.0067277 L66.5,14 L69.5,14 Z M80.5,14 C81.0522847,14 81.5,14.4477153 81.5,15 C81.5,15.5128358 81.1139598,15.9355072 80.6166211,15.9932723 L80.5,16 L77.5,16 C76.9477153,16 76.5,15.5522847 76.5,15 C76.5,14.4871642 76.8860402,14.0644928 77.3833789,14.0067277 L77.5,14 L80.5,14 Z M91.5,14 C92.0522847,14 92.5,14.4477153 92.5,15 C92.5,15.5128358 92.1139598,15.9355072 91.6166211,15.9932723 L91.5,16 L88.5,16 C87.9477153,16 87.5,15.5522847 87.5,15 C87.5,14.4871642 87.8860402,14.0644928 88.3833789,14.0067277 L88.5,14 L91.5,14 Z M102.5,14 C103.052285,14 103.5,14.4477153 103.5,15 C103.5,15.5128358 103.11396,15.9355072 102.616621,15.9932723 L102.5,16 L99.5,16 C98.9477153,16 98.5,15.5522847 98.5,15 C98.5,14.4871642 98.8860402,14.0644928 99.3833789,14.0067277 L99.5,14 L102.5,14 Z M113.5,14 C114.052285,14 114.5,14.4477153 114.5,15 C114.5,15.5128358 114.11396,15.9355072 113.616621,15.9932723 L113.5,16 L110.5,16 C109.947715,16 109.5,15.5522847 109.5,15 C109.5,14.4871642 109.88604,14.0644928 110.383379,14.0067277 L110.5,14 L113.5,14 Z M124.5,14 C125.052285,14 125.5,14.4477153 125.5,15 C125.5,15.5128358 125.11396,15.9355072 124.616621,15.9932723 L124.5,16 L121.5,16 C120.947715,16 120.5,15.5522847 120.5,15 C120.5,14.4871642 120.88604,14.0644928 121.383379,14.0067277 L121.5,14 L124.5,14 Z M135.5,14 C136.052285,14 136.5,14.4477153 136.5,15 C136.5,15.5128358 136.11396,15.9355072 135.616621,15.9932723 L135.5,16 L132.5,16 C131.947715,16 131.5,15.5522847 131.5,15 C131.5,14.4871642 131.88604,14.0644928 132.383379,14.0067277 L132.5,14 L135.5,14 Z M146.5,14 C147.052285,14 147.5,14.4477153 147.5,15 C147.5,15.5128358 147.11396,15.9355072 146.616621,15.9932723 L146.5,16 L143.5,16 C142.947715,16 142.5,15.5522847 142.5,15 C142.5,14.4871642 142.88604,14.0644928 143.383379,14.0067277 L143.5,14 L146.5,14 Z M157.5,14 C158.052285,14 158.5,14.4477153 158.5,15 C158.5,15.5128358 158.11396,15.9355072 157.616621,15.9932723 L157.5,16 L154.5,16 C153.947715,16 153.5,15.5522847 153.5,15 C153.5,14.4871642 153.88604,14.0644928 154.383379,14.0067277 L154.5,14 L157.5,14 Z M168.5,14 C169.052285,14 169.5,14.4477153 169.5,15 C169.5,15.5128358 169.11396,15.9355072 168.616621,15.9932723 L168.5,16 L165.5,16 C164.947715,16 164.5,15.5522847 164.5,15 C164.5,14.4871642 164.88604,14.0644928 165.383379,14.0067277 L165.5,14 L168.5,14 Z M179.5,14 C180.052285,14 180.5,14.4477153 180.5,15 C180.5,15.5128358 180.11396,15.9355072 179.616621,15.9932723 L179.5,16 L176.5,16 C175.947715,16 175.5,15.5522847 175.5,15 C175.5,14.4871642 175.88604,14.0644928 176.383379,14.0067277 L176.5,14 L179.5,14 Z M190.5,14 C191.052285,14 191.5,14.4477153 191.5,15 C191.5,15.5128358 191.11396,15.9355072 190.616621,15.9932723 L190.5,16 L187.5,16 C186.947715,16 186.5,15.5522847 186.5,15 C186.5,14.4871642 186.88604,14.0644928 187.383379,14.0067277 L187.5,14 L190.5,14 Z M201.5,14 C202.052285,14 202.5,14.4477153 202.5,15 C202.5,15.5128358 202.11396,15.9355072 201.616621,15.9932723 L201.5,16 L198.5,16 C197.947715,16 197.5,15.5522847 197.5,15 C197.5,14.4871642 197.88604,14.0644928 198.383379,14.0067277 L198.5,14 L201.5,14 Z M212.5,14 C213.052285,14 213.5,14.4477153 213.5,15 C213.5,15.5128358 213.11396,15.9355072 212.616621,15.9932723 L212.5,16 L209.5,16 C208.947715,16 208.5,15.5522847 208.5,15 C208.5,14.4871642 208.88604,14.0644928 209.383379,14.0067277 L209.5,14 L212.5,14 Z M223.5,14 C224.052285,14 224.5,14.4477153 224.5,15 C224.5,15.5128358 224.11396,15.9355072 223.616621,15.9932723 L223.5,16 L220.5,16 C219.947715,16 219.5,15.5522847 219.5,15 C219.5,14.4871642 219.88604,14.0644928 220.383379,14.0067277 L220.5,14 L223.5,14 Z M234.5,14 C235.052285,14 235.5,14.4477153 235.5,15 C235.5,15.5128358 235.11396,15.9355072 234.616621,15.9932723 L234.5,16 L231.5,16 C230.947715,16 230.5,15.5522847 230.5,15 C230.5,14.4871642 230.88604,14.0644928 231.383379,14.0067277 L231.5,14 L234.5,14 Z M245.5,14 C246.052285,14 246.5,14.4477153 246.5,15 C246.5,15.5128358 246.11396,15.9355072 245.616621,15.9932723 L245.5,16 L242.5,16 C241.947715,16 241.5,15.5522847 241.5,15 C241.5,14.4871642 241.88604,14.0644928 242.383379,14.0067277 L242.5,14 L245.5,14 Z M256.5,14 C257.052285,14 257.5,14.4477153 257.5,15 C257.5,15.5128358 257.11396,15.9355072 256.616621,15.9932723 L256.5,16 L253.5,16 C252.947715,16 252.5,15.5522847 252.5,15 C252.5,14.4871642 252.88604,14.0644928 253.383379,14.0067277 L253.5,14 L256.5,14 Z M267.5,14 C268.052285,14 268.5,14.4477153 268.5,15 C268.5,15.5128358 268.11396,15.9355072 267.616621,15.9932723 L267.5,16 L264.5,16 C263.947715,16 263.5,15.5522847 263.5,15 C263.5,14.4871642 263.88604,14.0644928 264.383379,14.0067277 L264.5,14 L267.5,14 Z M278.5,14 C279.052285,14 279.5,14.4477153 279.5,15 C279.5,15.5128358 279.11396,15.9355072 278.616621,15.9932723 L278.5,16 L275.5,16 C274.947715,16 274.5,15.5522847 274.5,15 C274.5,14.4871642 274.88604,14.0644928 275.383379,14.0067277 L275.5,14 L278.5,14 Z M289.5,14 C290.052285,14 290.5,14.4477153 290.5,15 C290.5,15.5128358 290.11396,15.9355072 289.616621,15.9932723 L289.5,16 L286.5,16 C285.947715,16 285.5,15.5522847 285.5,15 C285.5,14.4871642 285.88604,14.0644928 286.383379,14.0067277 L286.5,14 L289.5,14 Z M300.5,14 C301.052285,14 301.5,14.4477153 301.5,15 C301.5,15.5128358 301.11396,15.9355072 300.616621,15.9932723 L300.5,16 L297.5,16 C296.947715,16 296.5,15.5522847 296.5,15 C296.5,14.4871642 296.88604,14.0644928 297.383379,14.0067277 L297.5,14 L300.5,14 Z M311.5,14 C312.052285,14 312.5,14.4477153 312.5,15 C312.5,15.5128358 312.11396,15.9355072 311.616621,15.9932723 L311.5,16 L308.5,16 C307.947715,16 307.5,15.5522847 307.5,15 C307.5,14.4871642 307.88604,14.0644928 308.383379,14.0067277 L308.5,14 L311.5,14 Z M322.5,14 C323.052285,14 323.5,14.4477153 323.5,15 C323.5,15.5128358 323.11396,15.9355072 322.616621,15.9932723 L322.5,16 L319.5,16 C318.947715,16 318.5,15.5522847 318.5,15 C318.5,14.4871642 318.88604,14.0644928 319.383379,14.0067277 L319.5,14 L322.5,14 Z M333.5,14 C334.052285,14 334.5,14.4477153 334.5,15 C334.5,15.5128358 334.11396,15.9355072 333.616621,15.9932723 L333.5,16 L330.5,16 C329.947715,16 329.5,15.5522847 329.5,15 C329.5,14.4871642 329.88604,14.0644928 330.383379,14.0067277 L330.5,14 L333.5,14 Z M344.5,14 C345.052285,14 345.5,14.4477153 345.5,15 C345.5,15.5128358 345.11396,15.9355072 344.616621,15.9932723 L344.5,16 L341.5,16 C340.947715,16 340.5,15.5522847 340.5,15 C340.5,14.4871642 340.88604,14.0644928 341.383379,14.0067277 L341.5,14 L344.5,14 Z M355.5,14 C356.052285,14 356.5,14.4477153 356.5,15 C356.5,15.5128358 356.11396,15.9355072 355.616621,15.9932723 L355.5,16 L352.5,16 C351.947715,16 351.5,15.5522847 351.5,15 C351.5,14.4871642 351.88604,14.0644928 352.383379,14.0067277 L352.5,14 L355.5,14 Z M366.5,14 C367.052285,14 367.5,14.4477153 367.5,15 C367.5,15.5128358 367.11396,15.9355072 366.616621,15.9932723 L366.5,16 L363.5,16 C362.947715,16 362.5,15.5522847 362.5,15 C362.5,14.4871642 362.88604,14.0644928 363.383379,14.0067277 L363.5,14 L366.5,14 Z M377.5,14 C378.052285,14 378.5,14.4477153 378.5,15 C378.5,15.5128358 378.11396,15.9355072 377.616621,15.9932723 L377.5,16 L374.5,16 C373.947715,16 373.5,15.5522847 373.5,15 C373.5,14.4871642 373.88604,14.0644928 374.383379,14.0067277 L374.5,14 L377.5,14 Z M388.5,14 C389.052285,14 389.5,14.4477153 389.5,15 C389.5,15.5128358 389.11396,15.9355072 388.616621,15.9932723 L388.5,16 L385.5,16 C384.947715,16 384.5,15.5522847 384.5,15 C384.5,14.4871642 384.88604,14.0644928 385.383379,14.0067277 L385.5,14 L388.5,14 Z M399.5,14 C400.052285,14 400.5,14.4477153 400.5,15 C400.5,15.5128358 400.11396,15.9355072 399.616621,15.9932723 L399.5,16 L396.5,16 C395.947715,16 395.5,15.5522847 395.5,15 C395.5,14.4871642 395.88604,14.0644928 396.383379,14.0067277 L396.5,14 L399.5,14 Z M410.5,14 C411.052285,14 411.5,14.4477153 411.5,15 C411.5,15.5128358 411.11396,15.9355072 410.616621,15.9932723 L410.5,16 L407.5,16 C406.947715,16 406.5,15.5522847 406.5,15 C406.5,14.4871642 406.88604,14.0644928 407.383379,14.0067277 L407.5,14 L410.5,14 Z M421.5,14 C422.052285,14 422.5,14.4477153 422.5,15 C422.5,15.5128358 422.11396,15.9355072 421.616621,15.9932723 L421.5,16 L418.5,16 C417.947715,16 417.5,15.5522847 417.5,15 C417.5,14.4871642 417.88604,14.0644928 418.383379,14.0067277 L418.5,14 L421.5,14 Z M432.5,14 C433.052285,14 433.5,14.4477153 433.5,15 C433.5,15.5128358 433.11396,15.9355072 432.616621,15.9932723 L432.5,16 L429.5,16 C428.947715,16 428.5,15.5522847 428.5,15 C428.5,14.4871642 428.88604,14.0644928 429.383379,14.0067277 L429.5,14 L432.5,14 Z M443.5,14 C444.052285,14 444.5,14.4477153 444.5,15 C444.5,15.5128358 444.11396,15.9355072 443.616621,15.9932723 L443.5,16 L440.5,16 C439.947715,16 439.5,15.5522847 439.5,15 C439.5,14.4871642 439.88604,14.0644928 440.383379,14.0067277 L440.5,14 L443.5,14 Z M454.5,14 C455.052285,14 455.5,14.4477153 455.5,15 C455.5,15.5128358 455.11396,15.9355072 454.616621,15.9932723 L454.5,16 L451.5,16 C450.947715,16 450.5,15.5522847 450.5,15 C450.5,14.4871642 450.88604,14.0644928 451.383379,14.0067277 L451.5,14 L454.5,14 Z M465.5,14 C466.052285,14 466.5,14.4477153 466.5,15 C466.5,15.5128358 466.11396,15.9355072 465.616621,15.9932723 L465.5,16 L462.5,16 C461.947715,16 461.5,15.5522847 461.5,15 C461.5,14.4871642 461.88604,14.0644928 462.383379,14.0067277 L462.5,14 L465.5,14 Z M476.5,14 C477.052285,14 477.5,14.4477153 477.5,15 C477.5,15.5128358 477.11396,15.9355072 476.616621,15.9932723 L476.5,16 L473.5,16 C472.947715,16 472.5,15.5522847 472.5,15 C472.5,14.4871642 472.88604,14.0644928 473.383379,14.0067277 L473.5,14 L476.5,14 Z M487.5,14 C488.052285,14 488.5,14.4477153 488.5,15 C488.5,15.5128358 488.11396,15.9355072 487.616621,15.9932723 L487.5,16 L484.5,16 C483.947715,16 483.5,15.5522847 483.5,15 C483.5,14.4871642 483.88604,14.0644928 484.383379,14.0067277 L484.5,14 L487.5,14 Z M498.5,14 C499.052285,14 499.5,14.4477153 499.5,15 C499.5,15.5128358 499.11396,15.9355072 498.616621,15.9932723 L498.5,16 L495.5,16 C494.947715,16 494.5,15.5522847 494.5,15 C494.5,14.4871642 494.88604,14.0644928 495.383379,14.0067277 L495.5,14 L498.5,14 Z M509.5,14 C510.052285,14 510.5,14.4477153 510.5,15 C510.5,15.5128358 510.11396,15.9355072 509.616621,15.9932723 L509.5,16 L506.5,16 C505.947715,16 505.5,15.5522847 505.5,15 C505.5,14.4871642 505.88604,14.0644928 506.383379,14.0067277 L506.5,14 L509.5,14 Z M520.5,14 C521.052285,14 521.5,14.4477153 521.5,15 C521.5,15.5128358 521.11396,15.9355072 520.616621,15.9932723 L520.5,16 L517.5,16 C516.947715,16 516.5,15.5522847 516.5,15 C516.5,14.4871642 516.88604,14.0644928 517.383379,14.0067277 L517.5,14 L520.5,14 Z M531.5,14 C532.052285,14 532.5,14.4477153 532.5,15 C532.5,15.5128358 532.11396,15.9355072 531.616621,15.9932723 L531.5,16 L528.5,16 C527.947715,16 527.5,15.5522847 527.5,15 C527.5,14.4871642 527.88604,14.0644928 528.383379,14.0067277 L528.5,14 L531.5,14 Z M542.5,14 C543.052285,14 543.5,14.4477153 543.5,15 C543.5,15.5128358 543.11396,15.9355072 542.616621,15.9932723 L542.5,16 L539.5,16 C538.947715,16 538.5,15.5522847 538.5,15 C538.5,14.4871642 538.88604,14.0644928 539.383379,14.0067277 L539.5,14 L542.5,14 Z M553.5,14 C554.052285,14 554.5,14.4477153 554.5,15 C554.5,15.5128358 554.11396,15.9355072 553.616621,15.9932723 L553.5,16 L550.5,16 C549.947715,16 549.5,15.5522847 549.5,15 C549.5,14.4871642 549.88604,14.0644928 550.383379,14.0067277 L550.5,14 L553.5,14 Z M564.5,14 C565.052285,14 565.5,14.4477153 565.5,15 C565.5,15.5128358 565.11396,15.9355072 564.616621,15.9932723 L564.5,16 L561.5,16 C560.947715,16 560.5,15.5522847 560.5,15 C560.5,14.4871642 560.88604,14.0644928 561.383379,14.0067277 L561.5,14 L564.5,14 Z" fill="#979797" fill-rule="nonzero"></path>
            <rect id="r" fill="#FFFFFF" x="251" y="0" width="80" height="30"></rect>
            <text id="t" font-family="Helvetica-Oblique, Helvetica" font-size="20" font-style="italic" font-weight="normal" fill="#6D7278">
                <tspan x="255.041992" y="22">timeline</tspan>
            </text>
        </g>
        <g id="rq-i1" transform="translate(10.000000, 45.000000)">
            <rect id="r" fill="#0091FF" x="0" y="0" width="120" height="26"></rect>
            <text id="t" font-family="Helvetica-Oblique, Helvetica" font-size="14" font-style="italic" font-weight="normal" fill="#FFFFFF">
                <tspan x="31" y="18">request 1</tspan>
            </text>
        </g>
        <g id="rq-i2" transform="translate(130.000000, 75.000000)">
            <rect id="r" fill="#0091FF" x="0" y="0" width="120" height="26"></rect>
            <text id="t" font-family="Helvetica-Oblique, Helvetica" font-size="14" font-style="italic" font-weight="normal" fill="#FFFFFF">
                <tspan x="31" y="18">request 2</tspan>
            </text>
        </g>
        <g id="rq-i3" transform="translate(250.000000, 105.000000)">
            <rect id="r" fill="#0091FF" x="0" y="0" width="120" height="26"></rect>
            <text id="t" font-family="Helvetica-Oblique, Helvetica" font-size="14" font-style="italic" font-weight="normal" fill="#FFFFFF">
                <tspan x="31" y="18">request n</tspan>
            </text>
        </g>
        <g id="wt-i1" transform="translate(130.000000, 45.000000)">
            <rect id="r" fill="#AAAAAA" x="0" y="0" width="340" height="26"></rect>
            <text id="t" font-family="Helvetica-Oblique, Helvetica" font-size="14" font-style="italic" font-weight="normal" fill="#FFFFFF">
                <tspan x="158" y="18">wait</tspan>
            </text>
        </g>
        <g id="wt-i2" transform="translate(250.000000, 75.000000)">
            <rect id="r" fill="#AAAAAA" x="0" y="0" width="220" height="26"></rect>
            <text id="t" font-family="Helvetica-Oblique, Helvetica" font-size="14" font-style="italic" font-weight="normal" fill="#FFFFFF">
                <tspan x="98" y="18">wait</tspan>
            </text>
        </g>
        <g id="wt-i3" transform="translate(370.000000, 105.000000)">
            <rect id="r" fill="#AAAAAA" x="0" y="0" width="100" height="26"></rect>
            <text id="t" font-family="Helvetica-Oblique, Helvetica" font-size="14" font-style="italic" font-weight="normal" fill="#FFFFFF">
                <tspan x="38" y="18">wait</tspan>
            </text>
        </g>
        <g id="rs-i1" transform="translate(470.000000, 45.000000)">
            <rect id="r" fill="#43A047" x="0" y="0" width="120" height="26"></rect>
            <text id="t" font-family="Helvetica-Oblique, Helvetica" font-size="14" font-style="italic" font-weight="normal" fill="#FFFFFF">
                <tspan x="31" y="18">response</tspan>
            </text>
        </g>
        <g id="rs-i2" transform="translate(470.000000, 75.000000)">
            <rect id="r" fill="#43A047" x="0" y="0" width="120" height="26"></rect>
            <text id="t" font-family="Helvetica-Oblique, Helvetica" font-size="14" font-style="italic" font-weight="normal" fill="#FFFFFF">
                <tspan x="31" y="18">response</tspan>
            </text>
        </g>
        <g id="rs-i3" transform="translate(470.000000, 105.000000)">
            <rect id="r" fill="#43A047" x="0" y="0" width="120" height="26"></rect>
            <text id="t" font-family="Helvetica-Oblique, Helvetica" font-size="14" font-style="italic" font-weight="normal" fill="#FFFFFF">
                <tspan x="31" y="18">response</tspan>
            </text>
        </g>
        <g id="rq-o" transform="translate(10.000000, 287.000000)">
            <rect id="r" fill="#0091FF" x="0" y="0" width="120" height="26"></rect>
            <text id="t" font-family="Helvetica-Oblique, Helvetica" font-size="14" font-style="italic" font-weight="normal" fill="#FFFFFF">
                <tspan x="37" y="19">request</tspan>
            </text>
        </g>
        <g id="wt-o" transform="translate(130.000000, 287.000000)">
            <rect id="r" fill="#AAAAAA" x="0" y="0" width="340" height="26"></rect>
            <text id="t" font-family="Helvetica-Oblique, Helvetica" font-size="14" font-style="italic" font-weight="normal" fill="#FFFFFF">
                <tspan x="158" y="19">wait</tspan>
            </text>
        </g>
        <g id="rs-o" transform="translate(470.000000, 287.000000)">
            <rect id="r" fill="#43A047" x="0" y="0" width="120" height="26"></rect>
            <text id="t" font-family="Helvetica-Oblique, Helvetica" font-size="14" font-style="italic" font-weight="normal" fill="#FFFFFF">
                <tspan x="31" y="19">response</tspan>
            </text>
        </g>
        <g id="c1" transform="translate(10.000000, 145.000000)">
            <rect id="r" fill="#FA6400" x="0" y="0" width="170" height="30" rx="15"></rect>
            <text id="t" font-family="Helvetica-BoldOblique, Helvetica" font-size="12" font-style="italic" font-weight="bold" fill="#FFFFFF">
                <tspan x="11.3154297" y="19">init proxy task for request</tspan>
            </text>
        </g>
        <g id="c2" transform="translate(130.000000, 179.000000)">
            <rect id="r" fill="#FA6400" x="0" y="0" width="240" height="30" rx="15"></rect>
            <text id="t" font-family="Helvetica-BoldOblique, Helvetica" font-size="12" font-style="italic" font-weight="bold" fill="#FFFFFF">
                <tspan x="19.4755859" y="19">bind more requests with proxy task</tspan>
            </text>
        </g>
        <g id="c3" transform="translate(360.000000, 213.000000)">
            <rect id="r" fill="#FA6400" x="0" y="0" width="230" height="30" rx="15"></rect>
            <text id="t" font-family="Helvetica-BoldOblique, Helvetica" font-size="12" font-style="italic" font-weight="bold" fill="#FFFFFF">
                <tspan x="29.1503906" y="19">respond all with one response</tspan>
            </text>
        </g>
        <g id="emit" transform="translate(53.000000, 179.000000)">
            <path id="l" d="M17.9951691,-0.999988331 C18.507999,-1.00246577 18.9325303,-0.618471951 18.9926973,-0.121418125 L18.9999883,-0.0048308615 L19.435,90.273 L24.600938,90.2481504 C25.0266759,90.2460937 25.3795444,90.5629768 25.4330652,90.9744992 L25.4400779,91.0792216 C25.4407042,91.2088677 25.411137,91.3368791 25.3537177,91.4531181 L25.3537177,91.4531181 L19.248559,103.812342 C19.0442897,104.225863 18.5434721,104.395494 18.1299514,104.191225 C17.9679452,104.111198 17.8362653,103.980784 17.7546766,103.819559 L17.7546766,103.819559 L11.5303929,91.5198975 C11.3221379,91.1083697 11.4869231,90.6059365 11.8984508,90.3976815 C12.0141297,90.3391419 12.1418495,90.3083392 12.2714955,90.3077129 L12.2714955,90.3077129 L17.436,90.282 L17.0000117,0.0048308615 C16.9973437,-0.547447444 17.4428908,-0.99732032 17.9951691,-0.999988331 Z" fill="#979797" fill-rule="nonzero"></path>
            <rect id="r" fill="#FA6400" x="0" y="36" width="37" height="16" rx="8"></rect>
            <text id="t" font-family="Helvetica-BoldOblique, Helvetica" font-size="12" font-style="italic" font-weight="bold" fill="#FFFFFF">
                <tspan x="6.16308594" y="48">emit</tspan>
            </text>
        </g>
        <path id="line" d="M70.5,73.5 C71.0128358,73.5 71.4355072,73.8860402 71.4932723,74.3833789 L71.5,74.5 L71.5,127.277 L76.6648846,127.277778 C77.0906275,127.277778 77.4419611,127.596362 77.4934933,128.008138 L77.5,128.112893 C77.5,128.242541 77.4698147,128.370408 77.4118345,128.486368 L77.4118345,128.486368 L71.2470414,140.815954 C71.0407768,141.228483 70.5391456,141.395694 70.1266165,141.189429 C69.9649988,141.108621 69.8339504,140.977572 69.7531416,140.815954 L69.7531416,140.815954 L63.5883484,128.486368 C63.3820839,128.073839 63.5492943,127.572208 63.9618234,127.365943 C64.0777837,127.307963 64.2056507,127.277778 64.3352983,127.277778 L64.3352983,127.277778 L69.5,127.277 L69.5,74.5 C69.5,73.9477153 69.9477153,73.5 70.5,73.5 Z" fill="#979797" fill-rule="nonzero"></path>
        <path id="line" d="M530,134 C530.512836,134 530.935507,134.38604 530.993272,134.883379 L531,135 L531,196.777 L536.164885,196.777778 C536.590628,196.777778 536.941961,197.096362 536.993493,197.508138 L537,197.612893 C537,197.742541 536.969815,197.870408 536.911835,197.986368 L536.911835,197.986368 L530.747041,210.315954 C530.540777,210.728483 530.039146,210.895694 529.626617,210.689429 C529.464999,210.608621 529.33395,210.477572 529.253142,210.315954 L529.253142,210.315954 L523.088348,197.986368 C522.882084,197.573839 523.049294,197.072208 523.461823,196.865943 C523.577784,196.807963 523.705651,196.777778 523.835298,196.777778 L523.835298,196.777778 L529,196.777 L529,135 C529,134.447715 529.447715,134 530,134 Z" fill="#979797" fill-rule="nonzero"></path>
        <path id="line" d="M530.5,245.5 C531.012836,245.5 531.435507,245.88604 531.493272,246.383379 L531.5,246.5 L531.5,269.277 L536.664885,269.277778 C537.090628,269.277778 537.441961,269.596362 537.493493,270.008138 L537.5,270.112893 C537.5,270.242541 537.469815,270.370408 537.411835,270.486368 L537.411835,270.486368 L531.247041,282.815954 C531.040777,283.228483 530.539146,283.395694 530.126617,283.189429 C529.964999,283.108621 529.83395,282.977572 529.753142,282.815954 L529.753142,282.815954 L523.588348,270.486368 C523.382084,270.073839 523.549294,269.572208 523.961823,269.365943 C524.077784,269.307963 524.205651,269.277778 524.335298,269.277778 L524.335298,269.277778 L529.5,269.277 L529.5,246.5 C529.5,245.947715 529.947715,245.5 530.5,245.5 Z" fill="#979797" fill-rule="nonzero"></path>
        <path id="line" d="M216,104 C216.512836,104 216.935507,104.38604 216.993272,104.883379 L217,105 L217,161.777 L222.164885,161.777778 C222.590628,161.777778 222.941961,162.096362 222.993493,162.508138 L223,162.612893 C223,162.742541 222.969815,162.870408 222.911835,162.986368 L222.911835,162.986368 L216.747041,175.315954 C216.540777,175.728483 216.039146,175.895694 215.626617,175.689429 C215.464999,175.608621 215.33395,175.477572 215.253142,175.315954 L215.253142,175.315954 L209.088348,162.986368 C208.882084,162.573839 209.049294,162.072208 209.461823,161.865943 C209.577784,161.807963 209.705651,161.777778 209.835298,161.777778 L209.835298,161.777778 L215,161.777 L215,105 C215,104.447715 215.447715,104 216,104 Z" fill="#979797" fill-rule="nonzero"></path>
        <path id="line" d="M309.987655,134.000076 C310.500452,133.993745 310.927857,134.374538 310.991757,134.871126 L310.999924,134.987655 L311.336,162.266 L316.50119,162.202681 C316.9269,162.197426 317.28214,162.511648 317.338752,162.922757 L317.346551,163.027424 C317.348151,163.157062 317.319547,163.285291 317.263003,163.401959 L317.263003,163.401959 L311.250885,175.806708 C311.049729,176.221752 310.5502,176.395142 310.135156,176.193986 C309.972553,176.115179 309.839897,175.985758 309.757099,175.82515 L309.757099,175.82515 L303.44057,163.572606 C303.229229,163.162655 303.390234,162.658997 303.800185,162.447656 C303.915421,162.388249 304.042905,162.356487 304.172543,162.354887 L304.172543,162.354887 L309.336,162.29 L309.000076,135.012345 C308.993258,134.460102 309.435413,134.006894 309.987655,134.000076 Z" fill="#979797" fill-rule="nonzero"></path>
    </g>
</svg>